<mxfile host="app.diagrams.net" modified="2022-01-27T13:24:58.357Z" agent="5.0 (Windows NT 10.0; Win64; x64) AppleWebKit/537.36 (KHTML, like Gecko) Chrome/93.0.4577.82 Safari/537.36" etag="o-285XRQZMdYfR0TYhv3" version="16.4.7" type="github">
  <diagram id="Z9BIXwAudIdPyzS2Na4K" name="第 1 页">
    <mxGraphModel dx="898" dy="386" grid="1" gridSize="10" guides="1" tooltips="1" connect="1" arrows="1" fold="1" page="1" pageScale="1" pageWidth="827" pageHeight="1169" background="#ffffff" math="0" shadow="0">
      <root>
        <mxCell id="0" />
        <mxCell id="1" parent="0" />
        <mxCell id="xy-9aCIuz_DETjGGlC9Q-10" value="" style="rounded=0;whiteSpace=wrap;html=1;fillColor=#f5f5f5;fontColor=#333333;strokeColor=#666666;shadow=1;" vertex="1" parent="1">
          <mxGeometry x="260" y="250" width="40" height="40" as="geometry" />
        </mxCell>
        <mxCell id="xy-9aCIuz_DETjGGlC9Q-11" value="" style="rounded=0;whiteSpace=wrap;html=1;fillColor=#f5f5f5;fontColor=#333333;strokeColor=#666666;shadow=1;" vertex="1" parent="1">
          <mxGeometry x="300" y="250" width="40" height="40" as="geometry" />
        </mxCell>
        <mxCell id="xy-9aCIuz_DETjGGlC9Q-12" value="" style="rounded=0;whiteSpace=wrap;html=1;fillColor=#f5f5f5;fontColor=#333333;strokeColor=#666666;shadow=1;" vertex="1" parent="1">
          <mxGeometry x="340" y="250" width="40" height="40" as="geometry" />
        </mxCell>
        <mxCell id="xy-9aCIuz_DETjGGlC9Q-13" value="" style="rounded=0;whiteSpace=wrap;html=1;fillColor=#f5f5f5;fontColor=#333333;strokeColor=#666666;shadow=1;" vertex="1" parent="1">
          <mxGeometry x="260" y="290" width="40" height="40" as="geometry" />
        </mxCell>
        <mxCell id="xy-9aCIuz_DETjGGlC9Q-14" value="" style="rounded=0;whiteSpace=wrap;html=1;fillColor=#f5f5f5;fontColor=#333333;strokeColor=#666666;shadow=1;" vertex="1" parent="1">
          <mxGeometry x="300" y="290" width="40" height="40" as="geometry" />
        </mxCell>
        <mxCell id="xy-9aCIuz_DETjGGlC9Q-15" value="" style="rounded=0;whiteSpace=wrap;html=1;fillColor=#f5f5f5;fontColor=#333333;strokeColor=#666666;shadow=1;" vertex="1" parent="1">
          <mxGeometry x="340" y="290" width="40" height="40" as="geometry" />
        </mxCell>
        <mxCell id="xy-9aCIuz_DETjGGlC9Q-16" value="" style="rounded=0;whiteSpace=wrap;html=1;fillColor=#f5f5f5;fontColor=#333333;strokeColor=#666666;shadow=1;" vertex="1" parent="1">
          <mxGeometry x="260" y="330" width="40" height="40" as="geometry" />
        </mxCell>
        <mxCell id="xy-9aCIuz_DETjGGlC9Q-17" value="" style="rounded=0;whiteSpace=wrap;html=1;fillColor=#f5f5f5;fontColor=#333333;strokeColor=#666666;shadow=1;" vertex="1" parent="1">
          <mxGeometry x="300" y="330" width="40" height="40" as="geometry" />
        </mxCell>
        <mxCell id="xy-9aCIuz_DETjGGlC9Q-18" value="" style="rounded=0;whiteSpace=wrap;html=1;fillColor=#f5f5f5;fontColor=#333333;strokeColor=#666666;shadow=1;" vertex="1" parent="1">
          <mxGeometry x="340" y="330" width="40" height="40" as="geometry" />
        </mxCell>
        <mxCell id="xy-9aCIuz_DETjGGlC9Q-19" value="" style="rounded=0;whiteSpace=wrap;html=1;fillColor=#f5f5f5;fontColor=#333333;strokeColor=#666666;shadow=1;" vertex="1" parent="1">
          <mxGeometry x="380" y="250" width="40" height="40" as="geometry" />
        </mxCell>
        <mxCell id="xy-9aCIuz_DETjGGlC9Q-20" value="" style="rounded=0;whiteSpace=wrap;html=1;fillColor=#f5f5f5;fontColor=#333333;strokeColor=#666666;shadow=1;" vertex="1" parent="1">
          <mxGeometry x="380" y="290" width="40" height="40" as="geometry" />
        </mxCell>
        <mxCell id="xy-9aCIuz_DETjGGlC9Q-21" value="" style="rounded=0;whiteSpace=wrap;html=1;fillColor=#f5f5f5;fontColor=#333333;strokeColor=#666666;shadow=1;" vertex="1" parent="1">
          <mxGeometry x="380" y="330" width="40" height="40" as="geometry" />
        </mxCell>
        <mxCell id="xy-9aCIuz_DETjGGlC9Q-41" value="" style="endArrow=classicThin;dashed=1;html=1;rounded=0;endFill=1;fillColor=#dae8fc;strokeColor=#6c8ebf;" edge="1" parent="1">
          <mxGeometry width="50" height="50" relative="1" as="geometry">
            <mxPoint x="240" y="310" as="sourcePoint" />
            <mxPoint x="320" y="230" as="targetPoint" />
          </mxGeometry>
        </mxCell>
        <mxCell id="xy-9aCIuz_DETjGGlC9Q-42" value="" style="endArrow=none;dashed=1;html=1;rounded=0;startArrow=classicThin;startFill=1;fillColor=#f8cecc;strokeColor=#b85450;" edge="1" parent="1">
          <mxGeometry width="50" height="50" relative="1" as="geometry">
            <mxPoint x="240" y="350" as="sourcePoint" />
            <mxPoint x="360" y="230" as="targetPoint" />
          </mxGeometry>
        </mxCell>
        <mxCell id="xy-9aCIuz_DETjGGlC9Q-43" value="" style="endArrow=classicThin;dashed=1;html=1;rounded=0;endFill=1;fillColor=#dae8fc;strokeColor=#6c8ebf;" edge="1" parent="1">
          <mxGeometry width="50" height="50" relative="1" as="geometry">
            <mxPoint x="240" y="390" as="sourcePoint" />
            <mxPoint x="400" y="230" as="targetPoint" />
          </mxGeometry>
        </mxCell>
        <mxCell id="xy-9aCIuz_DETjGGlC9Q-44" value="" style="endArrow=none;dashed=1;html=1;rounded=0;startArrow=classicThin;startFill=1;fillColor=#f8cecc;strokeColor=#b85450;" edge="1" parent="1">
          <mxGeometry width="50" height="50" relative="1" as="geometry">
            <mxPoint x="280" y="390" as="sourcePoint" />
            <mxPoint x="440" y="230" as="targetPoint" />
          </mxGeometry>
        </mxCell>
        <mxCell id="xy-9aCIuz_DETjGGlC9Q-45" value="" style="endArrow=classicThin;dashed=1;html=1;rounded=0;endFill=1;fillColor=#dae8fc;strokeColor=#6c8ebf;" edge="1" parent="1">
          <mxGeometry width="50" height="50" relative="1" as="geometry">
            <mxPoint x="320" y="390" as="sourcePoint" />
            <mxPoint x="440" y="270" as="targetPoint" />
          </mxGeometry>
        </mxCell>
        <mxCell id="xy-9aCIuz_DETjGGlC9Q-47" value="" style="endArrow=none;dashed=1;html=1;rounded=0;startArrow=classicThin;startFill=1;fillColor=#f8cecc;strokeColor=#b85450;gradientColor=#ea6b66;" edge="1" parent="1">
          <mxGeometry width="50" height="50" relative="1" as="geometry">
            <mxPoint x="360" y="390" as="sourcePoint" />
            <mxPoint x="440" y="310" as="targetPoint" />
          </mxGeometry>
        </mxCell>
        <mxCell id="xy-9aCIuz_DETjGGlC9Q-54" value="0" style="text;html=1;strokeColor=none;fillColor=none;align=center;verticalAlign=middle;whiteSpace=wrap;rounded=0;shadow=1;opacity=0;" vertex="1" parent="1">
          <mxGeometry x="300" y="200" width="40" height="30" as="geometry" />
        </mxCell>
        <mxCell id="xy-9aCIuz_DETjGGlC9Q-55" value="1" style="text;html=1;strokeColor=none;fillColor=none;align=center;verticalAlign=middle;whiteSpace=wrap;rounded=0;shadow=1;opacity=0;" vertex="1" parent="1">
          <mxGeometry x="340" y="200" width="40" height="30" as="geometry" />
        </mxCell>
        <mxCell id="xy-9aCIuz_DETjGGlC9Q-56" value="2" style="text;html=1;strokeColor=none;fillColor=none;align=center;verticalAlign=middle;whiteSpace=wrap;rounded=0;shadow=1;opacity=0;" vertex="1" parent="1">
          <mxGeometry x="380" y="200" width="40" height="30" as="geometry" />
        </mxCell>
        <mxCell id="xy-9aCIuz_DETjGGlC9Q-57" value="3" style="text;html=1;strokeColor=none;fillColor=none;align=center;verticalAlign=middle;whiteSpace=wrap;rounded=0;shadow=1;opacity=0;" vertex="1" parent="1">
          <mxGeometry x="440" y="215" width="40" height="30" as="geometry" />
        </mxCell>
        <mxCell id="xy-9aCIuz_DETjGGlC9Q-58" value="4" style="text;html=1;strokeColor=none;fillColor=none;align=center;verticalAlign=middle;whiteSpace=wrap;rounded=0;shadow=1;opacity=0;" vertex="1" parent="1">
          <mxGeometry x="440" y="260" width="40" height="30" as="geometry" />
        </mxCell>
        <mxCell id="xy-9aCIuz_DETjGGlC9Q-59" value="5" style="text;html=1;strokeColor=none;fillColor=none;align=center;verticalAlign=middle;whiteSpace=wrap;rounded=0;shadow=1;opacity=0;" vertex="1" parent="1">
          <mxGeometry x="440" y="295" width="40" height="30" as="geometry" />
        </mxCell>
        <mxCell id="xy-9aCIuz_DETjGGlC9Q-66" style="edgeStyle=orthogonalEdgeStyle;curved=1;rounded=0;orthogonalLoop=1;jettySize=auto;html=1;exitX=1;exitY=0.5;exitDx=0;exitDy=0;entryX=0;entryY=0.5;entryDx=0;entryDy=0;fontColor=#000000;startArrow=none;startFill=0;endArrow=classicThin;endFill=1;elbow=vertical;" edge="1" parent="1" source="xy-9aCIuz_DETjGGlC9Q-60" target="xy-9aCIuz_DETjGGlC9Q-61">
          <mxGeometry relative="1" as="geometry" />
        </mxCell>
        <mxCell id="xy-9aCIuz_DETjGGlC9Q-60" value="(0,0)" style="text;html=1;strokeColor=#6c8ebf;fillColor=#dae8fc;align=center;verticalAlign=middle;whiteSpace=wrap;rounded=0;shadow=1;opacity=0;" vertex="1" parent="1">
          <mxGeometry x="270" y="270" width="20" height="20" as="geometry" />
        </mxCell>
        <mxCell id="xy-9aCIuz_DETjGGlC9Q-61" value="&lt;font color=&quot;#7ea6e0&quot;&gt;(0,1)&lt;/font&gt;" style="text;html=1;strokeColor=none;fillColor=none;align=center;verticalAlign=middle;whiteSpace=wrap;rounded=0;shadow=1;opacity=0;" vertex="1" parent="1">
          <mxGeometry x="310" y="270" width="20" height="20" as="geometry" />
        </mxCell>
        <mxCell id="xy-9aCIuz_DETjGGlC9Q-65" style="edgeStyle=orthogonalEdgeStyle;curved=1;rounded=0;orthogonalLoop=1;jettySize=auto;html=1;exitX=0.5;exitY=1;exitDx=0;exitDy=0;fontColor=#000000;startArrow=none;startFill=0;endArrow=classicThin;endFill=1;elbow=vertical;" edge="1" parent="1" source="xy-9aCIuz_DETjGGlC9Q-62" target="xy-9aCIuz_DETjGGlC9Q-63">
          <mxGeometry relative="1" as="geometry" />
        </mxCell>
        <mxCell id="xy-9aCIuz_DETjGGlC9Q-62" value="(1,3)" style="text;html=1;strokeColor=none;fillColor=none;align=center;verticalAlign=middle;whiteSpace=wrap;rounded=0;shadow=1;opacity=0;" vertex="1" parent="1">
          <mxGeometry x="380" y="310" width="40" height="20" as="geometry" />
        </mxCell>
        <mxCell id="xy-9aCIuz_DETjGGlC9Q-63" value="&lt;font color=&quot;#7ea6e0&quot;&gt;(2,3)&lt;/font&gt;" style="text;html=1;strokeColor=none;fillColor=none;align=center;verticalAlign=middle;whiteSpace=wrap;rounded=0;shadow=1;opacity=0;" vertex="1" parent="1">
          <mxGeometry x="380" y="350" width="40" height="20" as="geometry" />
        </mxCell>
        <mxCell id="xy-9aCIuz_DETjGGlC9Q-70" style="edgeStyle=orthogonalEdgeStyle;curved=1;rounded=0;orthogonalLoop=1;jettySize=auto;html=1;exitX=0.5;exitY=1;exitDx=0;exitDy=0;entryX=0.5;entryY=0;entryDx=0;entryDy=0;fontColor=#EA6B66;startArrow=none;startFill=0;endArrow=classicThin;endFill=1;elbow=vertical;" edge="1" parent="1" source="xy-9aCIuz_DETjGGlC9Q-67" target="xy-9aCIuz_DETjGGlC9Q-68">
          <mxGeometry relative="1" as="geometry" />
        </mxCell>
        <mxCell id="xy-9aCIuz_DETjGGlC9Q-67" value="(1,0)" style="text;html=1;strokeColor=#6c8ebf;fillColor=#dae8fc;align=center;verticalAlign=middle;whiteSpace=wrap;rounded=0;shadow=1;opacity=0;" vertex="1" parent="1">
          <mxGeometry x="270" y="310" width="20" height="20" as="geometry" />
        </mxCell>
        <mxCell id="xy-9aCIuz_DETjGGlC9Q-68" value="&lt;font color=&quot;#ea6b66&quot;&gt;(2,0)&lt;/font&gt;" style="text;html=1;strokeColor=#EA6B66;fillColor=#dae8fc;align=center;verticalAlign=middle;whiteSpace=wrap;rounded=0;shadow=1;opacity=0;" vertex="1" parent="1">
          <mxGeometry x="270" y="350" width="20" height="20" as="geometry" />
        </mxCell>
        <mxCell id="xy-9aCIuz_DETjGGlC9Q-71" value="&lt;font color=&quot;#ea6b66&quot;&gt;(2,2)&lt;/font&gt;" style="text;html=1;strokeColor=#EA6B66;fillColor=#dae8fc;align=center;verticalAlign=middle;whiteSpace=wrap;rounded=0;shadow=1;opacity=0;" vertex="1" parent="1">
          <mxGeometry x="350" y="350" width="20" height="20" as="geometry" />
        </mxCell>
        <mxCell id="xy-9aCIuz_DETjGGlC9Q-74" style="edgeStyle=orthogonalEdgeStyle;curved=1;rounded=0;orthogonalLoop=1;jettySize=auto;html=1;exitX=1;exitY=0.5;exitDx=0;exitDy=0;fontColor=#EA6B66;startArrow=none;startFill=0;endArrow=classicThin;endFill=1;elbow=vertical;" edge="1" parent="1">
          <mxGeometry relative="1" as="geometry">
            <mxPoint x="331" y="360" as="sourcePoint" />
            <mxPoint x="351" y="360" as="targetPoint" />
          </mxGeometry>
        </mxCell>
        <mxCell id="xy-9aCIuz_DETjGGlC9Q-72" value="(2,1)" style="text;html=1;strokeColor=#6c8ebf;fillColor=#dae8fc;align=center;verticalAlign=middle;whiteSpace=wrap;rounded=0;shadow=1;opacity=0;" vertex="1" parent="1">
          <mxGeometry x="310" y="350" width="20" height="20" as="geometry" />
        </mxCell>
      </root>
    </mxGraphModel>
  </diagram>
</mxfile>
